<?xml version="1.0" encoding="utf-8"?><svg xmlns="http://www.w3.org/2000/svg" xmlns:xlink="http://www.w3.org/1999/xlink"><symbol viewBox="0 0 77 78" id="LIChNYJ_KABINET" xmlns="http://www.w3.org/2000/svg"><path opacity=".96" d="M31.01 2.01c9.44-1.87 19.64-.12 27.72 5.18 9.24 5.79 15.67 15.89 16.96 26.72 1.39 9.44-1.11 19.39-6.72 27.1-6.93 9.85-18.91 16.07-31 15.63-4.39.07-8.66-1.06-12.82-2.37.55-.9 1.1-1.81 1.64-2.71 9.82 4.04 21.59 2.6 30.42-3.19C69.7 60.58 76.14 44.25 72.1 30.06 69.12 18.09 59.22 8.23 47.25 5.26 37.09 2.5 25.7 4.79 17.46 11.39 6.42 19.83 1.48 35.06 5.28 48.41c-.67.25-2.01.76-2.68 1.02C.08 40.26.92 30.08 5.4 21.64 10.42 11.69 20.11 4.3 31.01 2.01z"/><path opacity=".96" d="M31.54 22.55c3.93-4.05 11.37-3.19 14.28 1.65 2.7 3.99 1.54 9.78-2.32 12.61 6.17 2.38 10.63 8.51 10.59 15.19h-2.56c-.04-7.17-6.29-13.62-13.54-13.43-7.2-.18-13.5 6.23-13.48 13.38l-2.6.08c-.04-6.67 4.39-12.86 10.59-15.19-4.51-3.26-5.13-10.51-.96-14.29m3.65.64c-4.26 1.79-5.21 8.13-1.61 11.04 3.46 3.42 9.92 1.32 10.9-3.38 1.55-5.15-4.51-10.18-9.29-7.66zM9.63 63.1c1.49-1.23 2.92-2.55 4.54-3.61.39.46 1.18 1.38 1.57 1.84-1.5 1.23-3.01 2.47-4.52 3.7-.4-.49-1.2-1.45-1.59-1.93z"/></symbol><symbol id="NOVOSTI" viewBox="0 0 79 80" xml:space="preserve" xmlns="http://www.w3.org/2000/svg"><style>.bst0{opacity:.95;fill:#f3f3f3;enable-background:new}</style><g id="b_x23_f3f3f3f3"><path class="bst0" d="M23.6 4.9C33.7.2 45.8.4 55.9 5c8.9 4.2 16.2 11.8 19.8 21 4 10 3.6 21.7-1.2 31.3C70.8 65 64.4 71.1 57 75.1c-.3-1-.6-2-.9-3.1 10-4.9 17.3-15 18.9-26 3-17.1-8.3-35.4-25.1-40-9.8-3.2-20.7-1.5-29.5 3.8-8.1 5.1-14.2 13.5-16 23.1C1 48.3 9.3 65.2 23.3 72.2c-.3.7-.8 2-1.1 2.7C10.8 69.2 2.6 57.6 1 45-1.4 28.6 8.3 11.3 23.6 4.9z"/><path class="bst0" d="M29.9 18c3.4-3.7 9.8-3.8 13.3-.2 2.6 2.2 2.3 6 4.5 8.6 1.9 2.9.2 6.4-1.6 8.9-2.5.5-5.2 1.7-7.5 0s-5.5-1.2-7.6-3.1C26.5 29 26 21.9 29.9 18m-.8 8c.5 3.3 3.3 5.5 6.3 6.4-.5-2.5-.5-5.5 1.4-7.4 1.8-2.2 4.8-2.2 7.4-2.1-1.1-3.1-3.7-5.9-7.2-5.9-4.7-.5-8.9 4.3-7.9 9m10.2-.8c-2.9 1.6-3.3 6.1-.6 8.1 2.8 2.5 7.9.5 8.1-3.3.5-3.8-4.2-6.9-7.5-4.8z"/><path class="bst0" d="M21.5 32.2c6.7.6 13 3.5 18 7.9 1.9-2 4.1-3.6 6.5-4.8 3.5-1.7 7.3-2.9 11.1-3-.5 2.5-1.1 4.9-1.6 7.4 3.2 2 2.3 7-1.6 7.5-.4 2.3-.8 4.5-1.1 6.8-4 1.9-8.2 3.5-11.5 6.5-.9.5-2.1 2.3-3.1 1.1-3.6-3.5-8.2-5.5-12.6-7.5-.7-2.2-.8-4.5-1.1-6.8-1.5-.7-3.5-1.5-3.7-3.4-.5-1.8 1-3.1 2-4.3-.4-2.4-1-4.9-1.3-7.4m19.1 9.4c-.1 5.8 0 11.6-.2 17.4 3.4-2.6 7.3-4.4 11.1-6.2.3-1.9.5-3.8.8-5.8-3.1-2.1-2.4-7.1 1.5-7.5.5-1.8.9-3.5 1.3-5.3-5.4 1.2-10.7 3.3-14.5 7.4m-17-7.3c.4 1.6.7 3.3 1.1 5 1.3.8 3.1 1.2 3.5 2.9.8 1.9-.5 3.6-1.9 4.9.3 2 .6 3.9.9 5.9 4.1 1.8 8.2 3.8 11.5 6.8 0-5.8 0-11.6.1-17.4-3.9-4.5-9.5-6.9-15.2-8.1m0 7.5c-.7.7-1.8 1.9-.5 2.7 1 1.8 4 .5 3.5-1.3.1-1.5-2.1-2.5-3-1.4m29.8-.3c-2.6.5-1.3 4.7 1.1 3.8 2.5-.6 1.2-4.7-1.1-3.8z"/><path d="M38.3 77.3c0-1.9-.1-3.9 0-5.8.6 0 1.8 0 2.4-.1v5.8c-.6.1-1.8.1-2.4.1z" opacity=".96"/></g></symbol><symbol viewBox="0 0 77 77" id="OPLATA" xmlns="http://www.w3.org/2000/svg"><path opacity=".96" d="M5.41 20.58C11.93 8.53 25.48.62 39.22 1.26c15.46.13 29.93 11 34.67 25.67 4.31 12.59 1.45 27.51-7.74 37.23-3.17 3.54-7.08 6.3-11.17 8.66-.24-.73-.7-2.18-.94-2.9 10.51-5.24 17.99-16.1 18.87-27.85C74.78 24.85 61.9 7.55 44.77 4.66c-2.65-.16-5.44-1.26-8.04-.27-.05-.15-.16-.45-.21-.6-8.54 1.05-17.05 4.27-23.04 10.65-9.17 9.1-12.25 23.57-7.86 35.69 2.76 8.59 9.34 15.47 17.07 19.89-.41.55-1.25 1.66-1.67 2.21C12.93 67.75 6.3 60.52 3.17 51.76-.63 41.69.19 30 5.41 20.58z"/><path opacity=".96" d="M20 23.97c-.38-2.22 1.7-4.33 3.93-3.97 7.69-.03 15.38.03 23.07-.02 1.44.2 3.22-.44 4.42.61 1.43.9.96 2.77 1.12 4.17 1.83.36 4.02.8 4.81 2.74.81 2.36.31 4.94.44 7.39 4.48.08 3.13 5.17 3.15 8.11.11 1.69-2.05 1.74-3.15 2.17-.18 3.3 1.09 8.21-2.96 9.67-10.61.38-21.27.06-31.9.16-1.56.18-3.1-1.36-2.93-2.91-.01-9.37 0-18.74 0-28.12m3.1-1.83c-1.85.44-.97 3.24.74 2.85 8.87.08 17.76.02 26.64.02-.07-.73-.19-2.2-.25-2.93-9.04.03-18.09-.13-27.13.06m-1.07 4.92c.15 8.61-.13 17.22.15 25.83 10.6.04 21.21.14 31.8-.04 2.97-1.35 1.26-5.39 1.69-7.93-2.85-.47-6.5 1.06-8.82-1.03-.59-2.5-.67-5.33.06-7.8 2.4-1.91 5.92-.51 8.76-.94-.44-2.54 1.31-6.7-1.76-7.93-10.62-.26-21.25.07-31.88-.16m26.63 10.22c-.01 1.83-.01 3.66-.01 5.49 3.42.05 6.85.04 10.27.03.01-1.84.01-3.69 0-5.53-3.42-.01-6.84-.02-10.26.01zM37.18 70.22c.62.01 1.86.03 2.49.05v5.77l-2.53.04c.01-1.96.01-3.91.04-5.86z"/></symbol><symbol id="OSTAVIT_ZAYaVKU" viewBox="0 0 79 79" xml:space="preserve" xmlns="http://www.w3.org/2000/svg"><style>.dst0{fill:#232323}</style><g id="d_x23_232323fb"><path class="dst0" d="M21.9 4.9C31.6 0 43.5-.6 53.5 3.7 64.4 8 72.9 17.7 76 29c2.3 7.8 1.5 16.2-1 23.9-.9-.4-1.8-.9-2.7-1.4 4.2-11.2 2.2-24.3-5-33.8C57.5 4.5 38-.4 23.4 7.4 8.8 14.3.6 32 4.6 47.6c2.7 11.5 11.6 21.1 22.6 25 6.9 2.6 14.6 2.6 21.7.8.2.7.5 2 .7 2.7-9 2.7-19 1.7-27.4-2.5C11.5 68.4 3.5 58 1.4 46.4-2 30 6.9 12.1 21.9 4.9z"/><path class="dst0" d="M21.6 29c1.9-2.3 4-4.5 6.3-6.4 7.3 7.2 14.3 14.6 21.6 21.8 3 2.6 3.7 6.9 3.7 10.6-3.3-.8-7.3-.8-9.7-3.6-7.2-7.5-14.7-14.7-21.9-22.4m3.4 0l2.1 2.1 2.9-2.9c-.5-.5-1.5-1.6-2.1-2.1-1 .9-2 1.9-2.9 2.9m3.8 3.8l16.5 16.8c1.3 1.6 3.4 1.8 5.2 2.4-.5-1.8-.7-3.9-2.2-5.3-5.6-5.6-11.1-11.3-16.6-16.9-1 1.1-2 2.1-2.9 3z"/><path d="M63.8 67.2c-1.4-1.3-2.9-2.6-4.1-4.1.4-.4 1.2-1.3 1.7-1.8 1.4 1.4 2.8 2.7 4.2 4.1-.5.4-1.4 1.3-1.8 1.8z" opacity=".96"/></g></symbol><symbol viewBox="0 0 80 81" id="O_NAS" xmlns="http://www.w3.org/2000/svg"><path d="M4.2 25.1C9.9 11.8 23.5 2.3 38 1.8c15-.8 30 8 36.5 21.6 5.4 10.6 5.3 23.6.1 34.3-5.2 10.8-15.7 18.9-27.5 21.1-7 1.5-14.3.3-21.1-1.6.2-.7.7-2.1.9-2.8 7.7 2.3 16 3.1 23.7.4C61.7 71.3 70.6 62 74 50.9c3.1-10.2 1.4-21.7-4.6-30.4C61.2 7.9 44.4 1.7 30 6 16.5 9.7 5.9 22 4.2 35.9c-.8 4.9 0 9.8.9 14.6-.7.2-2.1.5-2.8.7-2-8.7-1.8-18 1.9-26.1z" opacity=".97"/><path d="M10.3 65.2c1.5-1.2 2.9-2.5 4.5-3.6.4.5 1.2 1.4 1.6 1.8-1.5 1.2-3 2.5-4.5 3.7-.5-.4-1.3-1.4-1.6-1.9z" opacity=".96"/><path d="M24.5 40.8c.4-.1.6-.5.5-.9-.4-1.3-.6-2.7-.6-4.1 0-7.4 6.1-13.5 13.5-13.5 2 0 4 .4 5.8 1.3 4.7 2.2 7.8 7 7.8 12.2v2.4c0 .1 0 .2.1.3l2.9 5.5c.2.4.3.8.1 1.1-.2.3-.5.4-1 .4h-1.4c-.4 0-.7.3-.7.7v5.3c0 1.2-1 2.3-2.2 2.3l-4-.6c-.2 0-.4 0-.6.2-.1.1-.2.3-.2.5V58c0 .4.3.7.7.7.4 0 .7-.3.7-.7v-3.3l3.3.5h.1c2 0 3.7-1.7 3.7-3.7V47h.7c1 0 1.8-.4 2.2-1.1.4-.7.4-1.6-.1-2.5L53 38v-2.2c0-5.8-3.4-11.1-8.6-13.5-2-1-4.1-1.4-6.4-1.4-8.2 0-14.9 6.7-14.9 14.9 0 1.5.2 3.1.7 4.5-.1.5.3.7.7.5zm0 0" stroke-width=".5" stroke-miterlimit="10"/></symbol><symbol viewBox="0 0 344.96 344.96" id="check" xmlns="http://www.w3.org/2000/svg"><g data-name="Слой 2"><path d="M321.85 86.24l-40-23.11-23.1-40H212.5L172.48 0l-40 23.11H86.24l-23.11 40-40 23.1v46.21L0 172.48l23.11 40v46.21l40 23.11 23.11 40h46.21l40 23.1 40-23.11h46.21l23.11-40 40-23.11V212.5l23.11-40-23.11-40V86.24zM156.91 243.07a16.79 16.79 0 0 1-23.34 0l-50.45-50.44a16.19 16.19 0 0 1 0-22.89l13.35-13.35a16.19 16.19 0 0 1 22.89 0l25.87 25.87 80.34-80.35a16.19 16.19 0 0 1 22.89 0l13.35 13.35a16.19 16.19 0 0 1 0 22.89z" data-name="Capa 1"/></g></symbol><symbol viewBox="0 0 409.6 409.6" id="inst" xmlns="http://www.w3.org/2000/svg"><g data-name="Слой 2"><g data-name="Слой 1"><path d="M298.73 0H110.87A111 111 0 0 0 0 110.88v187.85A111 111 0 0 0 110.87 409.6h187.86A111 111 0 0 0 409.6 298.73V110.88A111 111 0 0 0 298.73 0zm86.86 298.73a87 87 0 0 1-86.86 86.86H110.87A87 87 0 0 1 24 298.73V110.88A87 87 0 0 1 110.87 24h187.86a87 87 0 0 1 86.86 86.87z"/><path d="M204.8 92.8a112 112 0 1 0 112 112 112.12 112.12 0 0 0-112-112zm0 200a88 88 0 1 1 88-88 88.08 88.08 0 0 1-88 88zM319.48 53a33.1 33.1 0 1 0 33.09 33.09A33.14 33.14 0 0 0 319.48 53zm0 42.17a9.08 9.08 0 1 1 9.08-9.08 9.09 9.09 0 0 1-9.08 9.08z"/></g></g></symbol><symbol viewBox="0 0 409.6 409.6" id="tel" xmlns="http://www.w3.org/2000/svg"><g data-name="Слой 2"><path d="M204.8 0C91.7 0 0 91.7 0 204.8s91.7 204.8 204.8 204.8 204.8-91.7 204.8-204.8S317.9 0 204.8 0zM313 298.82l-16.4 16.41c-2.92 2.92-11.5 4.75-11.78 4.75A193.42 193.42 0 0 1 89.6 124.35s1.88-8.35 4.8-11.25l16.4-16.4c6-6 17.52-8.75 25.6-6l3.45 1.15c8.05 2.7 16.5 11.6 18.72 19.8l8.25 30.28c2.23 8.22-.77 19.92-6.77 25.92l-11 10.95a116.3 116.3 0 0 0 81.77 81.8l10.95-11c6-6 17.73-9 25.93-6.8l30.3 8.27c8.21 2.25 17.1 10.66 19.8 18.7l1.16 3.5c2.67 8.05 0 19.58-6 25.55z" data-name="Слой 1"/></g></symbol><symbol viewBox="-49 141 512 512" id="vk" xmlns="http://www.w3.org/2000/svg"><path d="M359.9 514.6h-35.4c-9.7 0-19.1-4-25.9-10.9l-35.4-36.4c-5.3-5.4-11.9-9.3-19.1-11.2v33.8c0 13.6-11.1 24.7-24.7 24.7-31.6 0-62.8-10.6-87.9-29.8-9.5-7.3-18.5-15.3-26.9-23.8-3.7-3.8-3.6-9.8.1-13.5 3.8-3.7 9.8-3.6 13.5.1 7.7 7.9 16.1 15.3 24.9 22 21.8 16.7 48.9 25.8 76.3 25.8 3.1 0 5.6-2.5 5.6-5.6v-35.7c0-5.4 2.4-10.4 6.6-13.7 4.2-3.4 9.6-4.6 14.8-3.5 11.7 2.6 22.3 8.5 30.6 17l35.4 36.4c3.2 3.3 7.6 5.1 12.1 5.1h35.4c.2 0 .9 0 1.3-.8s.1-1.4 0-1.6l-4.9-7.9c-8.6-14.1-19-27-31-38.4l-16.2-15.5c-8.5-8.1-9.7-20.8-3-30.4l22.2-31.6c2.8-3.9 5.3-8.1 7.6-12.3l18.9-35.4c.1-.1.2-.3 0-.6s-.4-.3-.5-.3h-41c-1 0-1.9.6-2.3 1.5l-4.3 9.9c-12.2 27.7-28.9 53-49.6 75-1.4 1.5-3 2.6-4.8 3.4l-3.9 1.8c-5.1 2.3-11 1.9-15.7-1.1-4.7-3-7.5-8.2-7.5-13.8v-76.7h-54.4l2 2.7c6.3 8.8 9.7 19.2 9.7 30.1v59.9c0 6.8-4.1 12.8-10.5 15.3s-13.4.8-18-4.2c-8.4-9.2-20.5-23.8-30.5-41.4-12.2-21.4-20.8-46-24.8-58.8-.7-2.2-2.7-3.7-5-3.7h-41l7.5 26.7c4.4 15.6 10.4 30.7 17.9 45 2.5 4.7.6 10.5-4 12.9-4.7 2.5-10.5.6-12.9-4-8.1-15.5-14.6-31.9-19.4-48.7l-7.7-27.5c-1.6-5.6-.5-11.6 3.1-16.2 3.5-4.7 8.9-7.3 14.8-7.3h41.5c10.7 0 20 6.8 23.2 17 3.8 12 11.9 35.2 23.2 55.1 7.4 13 16.1 24.3 23.2 32.6v-52.8c0-6.8-2.1-13.4-6.1-18.9l-4-5.4c-2.1-3-3.2-6.4-3.2-10.1 0-9.5 7.8-17.3 17.3-17.3h58c10.5 0 19 8.5 19 19.1v72.2c18.8-20.2 33.9-43.2 44.9-68.4l4.3-9.9c3.5-7.9 11.2-12.9 19.8-12.9h41c7 0 13.3 3.6 16.9 9.6 3.6 6 3.8 13.3.5 19.5l-18.9 35.4c-2.6 4.9-5.6 9.7-8.8 14.3l-22 31.5c-1.2 1.7-1 4.1.6 5.5l16.2 15.5c13.2 12.5 24.6 26.7 34.1 42.2l4.9 7.9c3.9 6.4 4.1 14.4.4 20.9-3.7 6.6-10.6 10.6-18.1 10.6z"/><path d="M313.5 165h-212c-69 0-125.1 56.1-125.1 125.1v212c0 69 56.1 125.1 125.1 125.1h212c69 0 125.1-56.1 125.1-125.1v-212c0-69-56.1-125.1-125.1-125.1zm98 337.2c0 54.1-44 98-98 98h-212c-54.1 0-98-44-98-98v-212c0-54.1 44-98 98-98h212c54.1 0 98 44 98 98v212zm0 0"/></symbol></svg>