<?xml version="1.0" encoding="utf-8"?><svg xmlns="http://www.w3.org/2000/svg" xmlns:xlink="http://www.w3.org/1999/xlink"><symbol viewBox="0 0 344.96 344.96" id="check" xmlns="http://www.w3.org/2000/svg"><g data-name="Слой 2"><path d="M321.85 86.24l-40-23.11-23.1-40H212.5L172.48 0l-40 23.11H86.24l-23.11 40-40 23.1v46.21L0 172.48l23.11 40v46.21l40 23.11 23.11 40h46.21l40 23.1 40-23.11h46.21l23.11-40 40-23.11V212.5l23.11-40-23.11-40V86.24zM156.91 243.07a16.79 16.79 0 0 1-23.34 0l-50.45-50.44a16.19 16.19 0 0 1 0-22.89l13.35-13.35a16.19 16.19 0 0 1 22.89 0l25.87 25.87 80.34-80.35a16.19 16.19 0 0 1 22.89 0l13.35 13.35a16.19 16.19 0 0 1 0 22.89z" data-name="Capa 1"/></g></symbol><symbol viewBox="0 0 409.6 409.6" id="inst" xmlns="http://www.w3.org/2000/svg"><g data-name="Слой 2"><g data-name="Слой 1"><path d="M298.73 0H110.87A111 111 0 0 0 0 110.88v187.85A111 111 0 0 0 110.87 409.6h187.86A111 111 0 0 0 409.6 298.73V110.88A111 111 0 0 0 298.73 0zm86.86 298.73a87 87 0 0 1-86.86 86.86H110.87A87 87 0 0 1 24 298.73V110.88A87 87 0 0 1 110.87 24h187.86a87 87 0 0 1 86.86 86.87z"/><path d="M204.8 92.8a112 112 0 1 0 112 112 112.12 112.12 0 0 0-112-112zm0 200a88 88 0 1 1 88-88 88.08 88.08 0 0 1-88 88zM319.48 53a33.1 33.1 0 1 0 33.09 33.09A33.14 33.14 0 0 0 319.48 53zm0 42.17a9.08 9.08 0 1 1 9.08-9.08 9.09 9.09 0 0 1-9.08 9.08z"/></g></g></symbol><symbol viewBox="0 0 409.6 409.6" id="tel" xmlns="http://www.w3.org/2000/svg"><g data-name="Слой 2"><path d="M204.8 0C91.7 0 0 91.7 0 204.8s91.7 204.8 204.8 204.8 204.8-91.7 204.8-204.8S317.9 0 204.8 0zM313 298.82l-16.4 16.41c-2.92 2.92-11.5 4.75-11.78 4.75A193.42 193.42 0 0 1 89.6 124.35s1.88-8.35 4.8-11.25l16.4-16.4c6-6 17.52-8.75 25.6-6l3.45 1.15c8.05 2.7 16.5 11.6 18.72 19.8l8.25 30.28c2.23 8.22-.77 19.92-6.77 25.92l-11 10.95a116.3 116.3 0 0 0 81.77 81.8l10.95-11c6-6 17.73-9 25.93-6.8l30.3 8.27c8.21 2.25 17.1 10.66 19.8 18.7l1.16 3.5c2.67 8.05 0 19.58-6 25.55z" data-name="Слой 1"/></g></symbol><symbol viewBox="-49 141 512 512" id="vk" xmlns="http://www.w3.org/2000/svg"><path d="M359.9 514.6h-35.4c-9.7 0-19.1-4-25.9-10.9l-35.4-36.4c-5.3-5.4-11.9-9.3-19.1-11.2v33.8c0 13.6-11.1 24.7-24.7 24.7-31.6 0-62.8-10.6-87.9-29.8-9.5-7.3-18.5-15.3-26.9-23.8-3.7-3.8-3.6-9.8.1-13.5 3.8-3.7 9.8-3.6 13.5.1 7.7 7.9 16.1 15.3 24.9 22 21.8 16.7 48.9 25.8 76.3 25.8 3.1 0 5.6-2.5 5.6-5.6v-35.7c0-5.4 2.4-10.4 6.6-13.7 4.2-3.4 9.6-4.6 14.8-3.5 11.7 2.6 22.3 8.5 30.6 17l35.4 36.4c3.2 3.3 7.6 5.1 12.1 5.1h35.4c.2 0 .9 0 1.3-.8s.1-1.4 0-1.6l-4.9-7.9c-8.6-14.1-19-27-31-38.4l-16.2-15.5c-8.5-8.1-9.7-20.8-3-30.4l22.2-31.6c2.8-3.9 5.3-8.1 7.6-12.3l18.9-35.4c.1-.1.2-.3 0-.6s-.4-.3-.5-.3h-41c-1 0-1.9.6-2.3 1.5l-4.3 9.9c-12.2 27.7-28.9 53-49.6 75-1.4 1.5-3 2.6-4.8 3.4l-3.9 1.8c-5.1 2.3-11 1.9-15.7-1.1-4.7-3-7.5-8.2-7.5-13.8v-76.7h-54.4l2 2.7c6.3 8.8 9.7 19.2 9.7 30.1v59.9c0 6.8-4.1 12.8-10.5 15.3s-13.4.8-18-4.2c-8.4-9.2-20.5-23.8-30.5-41.4-12.2-21.4-20.8-46-24.8-58.8-.7-2.2-2.7-3.7-5-3.7h-41l7.5 26.7c4.4 15.6 10.4 30.7 17.9 45 2.5 4.7.6 10.5-4 12.9-4.7 2.5-10.5.6-12.9-4-8.1-15.5-14.6-31.9-19.4-48.7l-7.7-27.5c-1.6-5.6-.5-11.6 3.1-16.2 3.5-4.7 8.9-7.3 14.8-7.3h41.5c10.7 0 20 6.8 23.2 17 3.8 12 11.9 35.2 23.2 55.1 7.4 13 16.1 24.3 23.2 32.6v-52.8c0-6.8-2.1-13.4-6.1-18.9l-4-5.4c-2.1-3-3.2-6.4-3.2-10.1 0-9.5 7.8-17.3 17.3-17.3h58c10.5 0 19 8.5 19 19.1v72.2c18.8-20.2 33.9-43.2 44.9-68.4l4.3-9.9c3.5-7.9 11.2-12.9 19.8-12.9h41c7 0 13.3 3.6 16.9 9.6 3.6 6 3.8 13.3.5 19.5l-18.9 35.4c-2.6 4.9-5.6 9.7-8.8 14.3l-22 31.5c-1.2 1.7-1 4.1.6 5.5l16.2 15.5c13.2 12.5 24.6 26.7 34.1 42.2l4.9 7.9c3.9 6.4 4.1 14.4.4 20.9-3.7 6.6-10.6 10.6-18.1 10.6z"/><path d="M313.5 165h-212c-69 0-125.1 56.1-125.1 125.1v212c0 69 56.1 125.1 125.1 125.1h212c69 0 125.1-56.1 125.1-125.1v-212c0-69-56.1-125.1-125.1-125.1zm98 337.2c0 54.1-44 98-98 98h-212c-54.1 0-98-44-98-98v-212c0-54.1 44-98 98-98h212c54.1 0 98 44 98 98v212zm0 0"/></symbol></svg>