<svg xmlns="http://www.w3.org/2000/svg" viewBox="0 0 169.8 169.79"><defs><style>.cls-1{stroke:#000;stroke-miterlimit:10;stroke-width:5px;}</style></defs><title>email</title><g id="Слой_2" data-name="Слой 2"><g id="Слой_1-2" data-name="Слой 1"><path class="cls-1" d="M84.9,51.59A33.34,33.34,0,0,1,118.2,84.9a4.81,4.81,0,0,0,9.61,0A42.9,42.9,0,1,0,122,106.52a4.8,4.8,0,1,0-8.29-4.84A33.31,33.31,0,1,1,84.9,51.59Z"/><path class="cls-1" d="M167.06,78.54c-3-40.05-35.46-72.63-75.49-75.78A82.42,82.42,0,0,0,2.76,91.57C5.9,131.45,38.34,163.89,78.22,167q3.3.26,6.57.25a82.4,82.4,0,0,0,58.37-24.13,4.79,4.79,0,0,0-6.78-6.78A72.94,72.94,0,0,1,79,157.47C43.76,154.69,15.11,126,12.33,90.82A72.8,72.8,0,1,1,157.48,79.26a74.32,74.32,0,0,1-.31,14.47A15.32,15.32,0,0,1,149,105.5a13.22,13.22,0,0,1-12.56,0,4.8,4.8,0,1,0-4.58,8.44,22.74,22.74,0,0,0,21.55.11A24.9,24.9,0,0,0,166.7,94.88a84.06,84.06,0,0,0,.36-16.34Z"/></g></g></svg>