<?xml version="1.0" encoding="UTF-8" ?>
<!DOCTYPE svg PUBLIC "-//W3C//DTD SVG 1.1//EN" "http://www.w3.org/Graphics/SVG/1.1/DTD/svg11.dtd">
<svg width="77pt" height="78pt" viewBox="0 0 77 78" version="1.1" xmlns="http://www.w3.org/2000/svg">
<g id="#f6f6f6f6">
<path fill="#f6f6f6" opacity="0.96" d=" M 31.01 2.01 C 40.45 0.14 50.65 1.89 58.73 7.19 C 67.97 12.98 74.40 23.08 75.69 33.91 C 77.08 43.35 74.58 53.30 68.97 61.01 C 62.04 70.86 50.06 77.08 37.97 76.64 C 33.58 76.71 29.31 75.58 25.15 74.27 C 25.70 73.37 26.25 72.46 26.79 71.56 C 36.61 75.60 48.38 74.16 57.21 68.37 C 69.70 60.58 76.14 44.25 72.10 30.06 C 69.12 18.09 59.22 8.23 47.25 5.26 C 37.09 2.50 25.70 4.79 17.46 11.39 C 6.42 19.83 1.48 35.06 5.28 48.41 C 4.61 48.66 3.27 49.17 2.60 49.43 C 0.08 40.26 0.92 30.08 5.40 21.64 C 10.42 11.69 20.11 4.30 31.01 2.01 Z" />
<path fill="#f6f6f6" opacity="0.96" d=" M 31.54 22.55 C 35.47 18.50 42.91 19.36 45.82 24.20 C 48.52 28.19 47.36 33.98 43.50 36.81 C 49.67 39.19 54.13 45.32 54.09 52.00 C 53.45 52.00 52.17 52.00 51.53 52.00 C 51.49 44.83 45.24 38.38 37.99 38.57 C 30.79 38.39 24.49 44.80 24.51 51.95 C 23.86 51.97 22.56 52.01 21.91 52.03 C 21.87 45.36 26.30 39.17 32.50 36.84 C 27.99 33.58 27.37 26.33 31.54 22.55 M 35.19 23.19 C 30.93 24.98 29.98 31.32 33.58 34.23 C 37.04 37.65 43.50 35.55 44.48 30.85 C 46.03 25.70 39.97 20.67 35.19 23.19 Z" />
<path fill="#f6f6f6" opacity="0.96" d=" M 9.63 63.10 C 11.12 61.87 12.55 60.55 14.17 59.49 C 14.56 59.95 15.35 60.87 15.74 61.33 C 14.24 62.56 12.73 63.80 11.22 65.03 C 10.82 64.54 10.02 63.58 9.63 63.10 Z" />
</g>
</svg>
