<?xml version="1.0" encoding="utf-8"?>
<!-- Generator: Adobe Illustrator 21.0.0, SVG Export Plug-In . SVG Version: 6.00 Build 0)  -->
<svg version="1.1" id="Слой_1" xmlns="http://www.w3.org/2000/svg" xmlns:xlink="http://www.w3.org/1999/xlink" x="0px" y="0px"
	 viewBox="0 0 79 80" style="enable-background:new 0 0 79 80;" xml:space="preserve">
<style type="text/css">
	.st0{opacity:0.95;fill:#F3F3F3;enable-background:new    ;}
	.st1{opacity:0.96;fill:#F6F6F6;enable-background:new    ;}
</style>
<g id="_x23_f3f3f3f3">
	<path class="st0" d="M23.6,4.9C33.7,0.2,45.8,0.4,55.9,5c8.9,4.2,16.2,11.8,19.8,21c4,10,3.6,21.7-1.2,31.3
		C70.8,65,64.4,71.1,57,75.1c-0.3-1-0.6-2-0.9-3.1c10-4.9,17.3-15,18.9-26c3-17.1-8.3-35.4-25.1-40c-9.8-3.2-20.7-1.5-29.5,3.8
		C12.3,14.9,6.2,23.3,4.4,32.9C1,48.3,9.3,65.2,23.3,72.2c-0.3,0.7-0.8,2-1.1,2.7C10.8,69.2,2.6,57.6,1,45
		C-1.4,28.6,8.3,11.3,23.6,4.9z"/>
	<path class="st0" d="M29.9,18c3.4-3.7,9.8-3.8,13.3-0.2c2.6,2.2,2.3,6,4.5,8.6c1.9,2.9,0.2,6.4-1.6,8.9c-2.5,0.5-5.2,1.7-7.5,0
		c-2.3-1.7-5.5-1.2-7.6-3.1C26.5,29,26,21.9,29.9,18 M29.1,26c0.5,3.3,3.3,5.5,6.3,6.4c-0.5-2.5-0.5-5.5,1.4-7.4
		c1.8-2.2,4.8-2.2,7.4-2.1C43.1,19.8,40.5,17,37,17C32.3,16.5,28.1,21.3,29.1,26 M39.3,25.2c-2.9,1.6-3.3,6.1-0.6,8.1
		c2.8,2.5,7.9,0.5,8.1-3.3C47.3,26.2,42.6,23.1,39.3,25.2z"/>
	<path class="st0" d="M21.5,32.2c6.7,0.6,13,3.5,18,7.9c1.9-2,4.1-3.6,6.5-4.8c3.5-1.7,7.3-2.9,11.1-3c-0.5,2.5-1.1,4.9-1.6,7.4
		c3.2,2,2.3,7-1.6,7.5c-0.4,2.3-0.8,4.5-1.1,6.8c-4,1.9-8.2,3.5-11.5,6.5c-0.9,0.5-2.1,2.3-3.1,1.1c-3.6-3.5-8.2-5.5-12.6-7.5
		c-0.7-2.2-0.8-4.5-1.1-6.8c-1.5-0.7-3.5-1.5-3.7-3.4c-0.5-1.8,1-3.1,2-4.3C22.4,37.2,21.8,34.7,21.5,32.2 M40.6,41.6
		c-0.1,5.8,0,11.6-0.2,17.4c3.4-2.6,7.3-4.4,11.1-6.2c0.3-1.9,0.5-3.8,0.8-5.8c-3.1-2.1-2.4-7.1,1.5-7.5c0.5-1.8,0.9-3.5,1.3-5.3
		C49.7,35.4,44.4,37.5,40.6,41.6 M23.6,34.3c0.4,1.6,0.7,3.3,1.1,5c1.3,0.8,3.1,1.2,3.5,2.9c0.8,1.9-0.5,3.6-1.9,4.9
		c0.3,2,0.6,3.9,0.9,5.9c4.1,1.8,8.2,3.8,11.5,6.8c0-5.8,0-11.6,0.1-17.4C34.9,37.9,29.3,35.5,23.6,34.3 M23.6,41.8
		c-0.7,0.7-1.8,1.9-0.5,2.7c1,1.8,4,0.5,3.5-1.3C26.7,41.7,24.5,40.7,23.6,41.8 M53.4,41.5c-2.6,0.5-1.3,4.7,1.1,3.8
		C57,44.7,55.7,40.6,53.4,41.5z"/>
	<path class="st1" d="M38.3,77.3c0-1.9-0.1-3.9,0-5.8c0.6,0,1.8,0,2.4-0.1c0,1.9,0,3.9,0,5.8C40.1,77.3,38.9,77.3,38.3,77.3z"/>
</g>
</svg>
