<?xml version="1.0" encoding="utf-8"?>
<!-- Generator: Adobe Illustrator 21.0.0, SVG Export Plug-In . SVG Version: 6.00 Build 0)  -->
<svg version="1.1" id="Слой_1" xmlns="http://www.w3.org/2000/svg" xmlns:xlink="http://www.w3.org/1999/xlink" x="0px" y="0px"
	 viewBox="0 0 80 81" style="enable-background:new 0 0 80 81;" xml:space="preserve">
<style type="text/css">
	.st0{opacity:0.97;fill:#242424;enable-background:new    ;}
	.st1{opacity:0.96;fill:#242424;enable-background:new    ;}
	.st2{stroke:#000000;stroke-width:0.5;stroke-miterlimit:10;}
</style>
<g id="_x23_232323f7">
	<path class="st0" d="M4.2,25.1C9.9,11.8,23.5,2.3,38,1.8c15-0.8,30,8,36.5,21.6c5.4,10.6,5.3,23.6,0.1,34.3
		c-5.2,10.8-15.7,18.9-27.5,21.1c-7,1.5-14.3,0.3-21.1-1.6c0.2-0.7,0.7-2.1,0.9-2.8c7.7,2.3,16,3.1,23.7,0.4
		c11.1-3.5,20-12.8,23.4-23.9c3.1-10.2,1.4-21.7-4.6-30.4C61.2,7.9,44.4,1.7,30,6C16.5,9.7,5.9,22,4.2,35.9c-0.8,4.9,0,9.8,0.9,14.6
		C4.4,50.7,3,51,2.3,51.2C0.3,42.5,0.5,33.2,4.2,25.1z"/>
	<path class="st1" d="M10.3,65.2c1.5-1.2,2.9-2.5,4.5-3.6c0.4,0.5,1.2,1.4,1.6,1.8c-1.5,1.2-3,2.5-4.5,3.7
		C11.4,66.7,10.6,65.7,10.3,65.2z"/>
	<path class="st2" d="M24.5,40.8c0.4-0.1,0.6-0.5,0.5-0.9c-0.4-1.3-0.6-2.7-0.6-4.1c0-7.4,6.1-13.5,13.5-13.5c2,0,4,0.4,5.8,1.3
		c4.7,2.2,7.8,7,7.8,12.2v2.4c0,0.1,0,0.2,0.1,0.3l2.9,5.5c0.2,0.4,0.3,0.8,0.1,1.1c-0.2,0.3-0.5,0.4-1,0.4h-1.4
		c-0.4,0-0.7,0.3-0.7,0.7v5.3c0,1.2-1,2.3-2.2,2.3l-4-0.6c-0.2,0-0.4,0-0.6,0.2c-0.1,0.1-0.2,0.3-0.2,0.5l0,4.1
		c0,0.4,0.3,0.7,0.7,0.7c0.4,0,0.7-0.3,0.7-0.7l0-3.3l3.3,0.5c0,0,0.1,0,0.1,0c2,0,3.7-1.7,3.7-3.7V47h0.7c1,0,1.8-0.4,2.2-1.1
		c0.4-0.7,0.4-1.6-0.1-2.5l-2.8-5.4v-2.2c0-5.8-3.4-11.1-8.6-13.5c-2-1-4.1-1.4-6.4-1.4c-8.2,0-14.9,6.7-14.9,14.9
		c0,1.5,0.2,3.1,0.7,4.5C23.7,40.8,24.1,41,24.5,40.8L24.5,40.8z M24.5,40.8"/>
</g>
</svg>
