<?xml version="1.0" encoding="UTF-8" ?>
<!DOCTYPE svg PUBLIC "-//W3C//DTD SVG 1.1//EN" "http://www.w3.org/Graphics/SVG/1.1/DTD/svg11.dtd">
<svg width="77pt" height="77pt" viewBox="0 0 77 77" version="1.1" xmlns="http://www.w3.org/2000/svg">
<g id="#f6f6f6f6">
<path fill="#f6f6f6" opacity="0.96" d=" M 5.41 20.58 C 11.93 8.53 25.48 0.62 39.22 1.26 C 54.68 1.39 69.15 12.26 73.89 26.93 C 78.20 39.52 75.34 54.44 66.15 64.16 C 62.98 67.70 59.07 70.46 54.98 72.82 C 54.74 72.09 54.28 70.64 54.04 69.92 C 64.55 64.68 72.03 53.82 72.91 42.07 C 74.78 24.85 61.90 7.55 44.77 4.66 C 42.12 4.50 39.33 3.40 36.73 4.39 C 36.68 4.24 36.57 3.94 36.52 3.79 C 27.98 4.84 19.47 8.06 13.48 14.44 C 4.31 23.54 1.23 38.01 5.62 50.13 C 8.38 58.72 14.96 65.60 22.69 70.02 C 22.28 70.57 21.44 71.68 21.02 72.23 C 12.93 67.75 6.30 60.52 3.17 51.76 C -0.63 41.69 0.19 30.00 5.41 20.58 Z" />
<path fill="#f6f6f6" opacity="0.96" d=" M 20.00 23.97 C 19.62 21.75 21.70 19.64 23.93 20.00 C 31.62 19.97 39.31 20.03 47.00 19.98 C 48.44 20.18 50.22 19.54 51.42 20.59 C 52.85 21.49 52.38 23.36 52.54 24.76 C 54.37 25.12 56.56 25.56 57.35 27.50 C 58.16 29.86 57.66 32.44 57.79 34.89 C 62.27 34.97 60.92 40.06 60.94 43.00 C 61.05 44.69 58.89 44.74 57.79 45.17 C 57.61 48.47 58.88 53.38 54.83 54.84 C 44.22 55.22 33.56 54.90 22.93 55.00 C 21.37 55.18 19.83 53.64 20.00 52.09 C 19.99 42.72 20.00 33.35 20.00 23.97 M 23.10 22.14 C 21.25 22.58 22.13 25.38 23.84 24.99 C 32.71 25.07 41.60 25.01 50.48 25.01 C 50.41 24.28 50.29 22.81 50.23 22.08 C 41.19 22.11 32.14 21.95 23.10 22.14 M 22.03 27.06 C 22.18 35.67 21.90 44.28 22.18 52.89 C 32.78 52.93 43.39 53.03 53.98 52.85 C 56.95 51.50 55.24 47.46 55.67 44.92 C 52.82 44.45 49.17 45.98 46.85 43.89 C 46.26 41.39 46.18 38.56 46.91 36.09 C 49.31 34.18 52.83 35.58 55.67 35.15 C 55.23 32.61 56.98 28.45 53.91 27.22 C 43.29 26.96 32.66 27.29 22.03 27.06 M 48.66 37.28 C 48.65 39.11 48.65 40.94 48.65 42.77 C 52.07 42.82 55.50 42.81 58.92 42.80 C 58.93 40.96 58.93 39.11 58.92 37.27 C 55.50 37.26 52.08 37.25 48.66 37.28 Z" />
<path fill="#f6f6f6" opacity="0.96" d=" M 37.18 70.22 C 37.80 70.23 39.04 70.25 39.67 70.27 C 39.67 72.19 39.67 74.11 39.67 76.04 C 39.04 76.05 37.77 76.07 37.14 76.08 C 37.15 74.12 37.15 72.17 37.18 70.22 Z" />
</g>
</svg>
