<?xml version="1.0" encoding="utf-8"?>
<!-- Generator: Adobe Illustrator 21.0.0, SVG Export Plug-In . SVG Version: 6.00 Build 0)  -->
<svg version="1.1" id="Слой_1" xmlns="http://www.w3.org/2000/svg" xmlns:xlink="http://www.w3.org/1999/xlink" x="0px" y="0px"
	 viewBox="0 0 79 79" style="enable-background:new 0 0 79 79;" xml:space="preserve">
<style type="text/css">
	.st0{fill:#232323;}
	.st1{opacity:0.96;fill:#242424;enable-background:new    ;}
</style>
<g id="_x23_232323fb">
	<path class="st0" d="M21.9,4.9C31.6,0,43.5-0.6,53.5,3.7C64.4,8,72.9,17.7,76,29c2.3,7.8,1.5,16.2-1,23.9c-0.9-0.4-1.8-0.9-2.7-1.4
		c4.2-11.2,2.2-24.3-5-33.8C57.5,4.5,38-0.4,23.4,7.4C8.8,14.3,0.6,32,4.6,47.6c2.7,11.5,11.6,21.1,22.6,25
		c6.9,2.6,14.6,2.6,21.7,0.8c0.2,0.7,0.5,2,0.7,2.7c-9,2.7-19,1.7-27.4-2.5C11.5,68.4,3.5,58,1.4,46.4C-2,30,6.9,12.1,21.9,4.9z"/>
	<path class="st0" d="M21.6,29c1.9-2.3,4-4.5,6.3-6.4c7.3,7.2,14.3,14.6,21.6,21.8c3,2.6,3.7,6.9,3.7,10.6c-3.3-0.8-7.3-0.8-9.7-3.6
		C36.3,43.9,28.8,36.7,21.6,29 M25,29c0.5,0.5,1.5,1.5,2.1,2.1c1-1,1.9-1.9,2.9-2.9c-0.5-0.5-1.5-1.6-2.1-2.1C26.9,27,25.9,28,25,29
		 M28.8,32.8c5.5,5.6,11,11.2,16.5,16.8c1.3,1.6,3.4,1.8,5.2,2.4c-0.5-1.8-0.7-3.9-2.2-5.3c-5.6-5.6-11.1-11.3-16.6-16.9
		C30.7,30.9,29.7,31.9,28.8,32.8z"/>
	<path class="st1" d="M63.8,67.2c-1.4-1.3-2.9-2.6-4.1-4.1c0.4-0.4,1.2-1.3,1.7-1.8c1.4,1.4,2.8,2.7,4.2,4.1
		C65.1,65.8,64.2,66.7,63.8,67.2z"/>
</g>
</svg>
