<svg xmlns="http://www.w3.org/2000/svg" viewBox="0 0 409.6 409.6"><defs><style>.cls-1{fill:#fff;}</style></defs><title>tel</title><g id="Слой_2" data-name="Слой 2"><g id="Слой_1-2" data-name="Слой 1"><path class="cls-1" d="M204.8,0C91.7,0,0,91.7,0,204.8S91.7,409.6,204.8,409.6s204.8-91.7,204.8-204.8S317.9,0,204.8,0ZM313,298.82l-16.4,16.41c-2.92,2.92-11.5,4.75-11.78,4.75A193.42,193.42,0,0,1,89.6,124.35s1.88-8.35,4.8-11.25l16.4-16.4c6-6,17.52-8.75,25.6-6l3.45,1.15c8.05,2.7,16.5,11.6,18.72,19.8l8.25,30.28c2.23,8.22-.77,19.92-6.77,25.92l-11,10.95a116.3,116.3,0,0,0,81.77,81.8l10.95-11c6-6,17.73-9,25.93-6.8L298,251.07c8.21,2.25,17.1,10.66,19.8,18.7l1.16,3.5c2.67,8.05,0,19.58-6,25.55Z"/></g></g></svg>