<svg xmlns="http://www.w3.org/2000/svg" viewBox="0 0 393.88 393.8"><defs><style>.cls-1{stroke:#000;stroke-miterlimit:10;stroke-width:5px;}</style></defs><title>tel2</title><g id="Слой_2" data-name="Слой 2"><g id="Слой_1-2" data-name="Слой 1"><path class="cls-1" d="M334.34,59.46A194.37,194.37,0,1,0,59.46,334.34a193.1,193.1,0,0,0,137.44,57c30.16,0,57.68-5.6,79.52-16.08,20.72-10,35.76-24.32,42.4-40.24,7.92-19.12,3.44-39-12.24-54.72l-.56-.56a7.54,7.54,0,0,1,.8-.8c11.2-11.76,11.2-27.2-.16-38.56L279,212.66c-5.44-5.6-12-8.64-19-8.64s-13.6,3-19.2,8.56L226.42,227c-.72-.4-1.36-.72-2.08-1a50.31,50.31,0,0,1-4.72-2.56c-14.64-9.28-27.92-21.44-40.64-37a101.68,101.68,0,0,1-12.32-19c3.6-3.36,7-6.8,10.24-10.16,1.36-1.44,2.8-2.8,4.24-4.24,11.76-11.76,11.76-27,0-38.72l-13.68-13.68c-1.6-1.6-3.12-3.12-4.64-4.72-3-3.12-6.16-6.32-9.52-9.44-5.44-5.36-11.92-8.16-18.8-8.16s-13.44,2.8-19,8.16l-.16.16-17.2,17.2A39.29,39.29,0,0,0,86.42,128.9c-1.2,15.2,3.2,29.28,6.64,38.48,8.24,22.24,20.56,42.88,38.88,65a239.18,239.18,0,0,0,79.68,62.4c11.76,5.6,27.52,12.16,45.28,13.36,1.12.08,2.24.08,3.36.08,12.4,0,22.88-4.48,31-13.36l.32-.32a9.59,9.59,0,0,1,.88-1l.48.48c10.24,10.24,13,21.92,8.08,33.84-9.2,21.84-45,44.24-104.16,44.24-96.64,0-175.2-78.56-175.2-175.2S100.26,21.7,196.9,21.7s175.2,78.56,175.2,175.2a176,176,0,0,1-6.32,46.72,9.63,9.63,0,1,0,18.56,5.12,194.17,194.17,0,0,0-50-189.28ZM277.06,281.78c-4.56,4.88-9.68,7-16.8,7a19.49,19.49,0,0,1-2.16-.08c-14.4-1-28-6.64-38.16-11.52a220,220,0,0,1-73.2-57.36c-16.88-20.32-28.16-39.12-35.68-59.28-4.48-12.16-6.16-21.44-5.52-30.24a20,20,0,0,1,6.16-13.12l17.2-17.12c1.36-1.28,3.44-2.8,5.68-2.8a7.76,7.76,0,0,1,5.36,2.72l.24.24c3,2.8,5.92,5.76,9,8.88,1.6,1.6,3.2,3.28,4.8,4.88l13.68,13.68c4.24,4.24,4.24,7.36,0,11.6l-4.32,4.32c-4.24,4.24-8.16,8.32-12.48,12.16-.16.08-.24.24-.4.4a13.11,13.11,0,0,0-3.28,14.32c.08.24.16.4.24.64,3.68,8.88,8.8,17.2,16.64,27.12l.08.08c14.08,17.36,28.88,30.8,45.28,41.2,2.16,1.36,4.32,2.48,6.4,3.52a50.31,50.31,0,0,1,4.72,2.56,8.73,8.73,0,0,0,.88.48,13.79,13.79,0,0,0,6.24,1.52,13.17,13.17,0,0,0,9.6-4.32l17.2-17.2c1.36-1.36,3.36-3,5.6-3,2.08,0,4,1.52,5.2,2.8l27.84,27.84c3.92,3.92,3.92,7.52-.16,11.76l-.08.08c-1.84,2-3.84,3.92-6,6-3.2,3.12-6.56,6.4-9.76,10.16Z"/></g></g></svg>