<?xml version="1.0" encoding="utf-8"?>
<!-- Generator: Adobe Illustrator 22.1.0, SVG Export Plug-In . SVG Version: 6.00 Build 0)  -->
<svg version="1.1" id="Capa_1" xmlns="http://www.w3.org/2000/svg" xmlns:xlink="http://www.w3.org/1999/xlink" x="0px" y="0px"
	 viewBox="-49 141 512 512" style="enable-background:new -49 141 512 512;" xml:space="preserve">
<style type="text/css">
	.st0{display:none;}
</style>
<path d="M359.9,514.6h-35.4c-9.7,0-19.1-4-25.9-10.9l-35.4-36.4c-5.3-5.4-11.9-9.3-19.1-11.2v33.8c0,13.6-11.1,24.7-24.7,24.7
	c-31.6,0-62.8-10.6-87.9-29.8c-9.5-7.3-18.5-15.3-26.9-23.8c-3.7-3.8-3.6-9.8,0.1-13.5c3.8-3.7,9.8-3.6,13.5,0.1
	c7.7,7.9,16.1,15.3,24.9,22c21.8,16.7,48.9,25.8,76.3,25.8c3.1,0,5.6-2.5,5.6-5.6v-35.7c0-5.4,2.4-10.4,6.6-13.7
	c4.2-3.4,9.6-4.6,14.8-3.5c11.7,2.6,22.3,8.5,30.6,17l35.4,36.4c3.2,3.3,7.6,5.1,12.1,5.1h35.4c0.2,0,0.9,0,1.3-0.8
	c0.4-0.8,0.1-1.4,0-1.6l-4.9-7.9c-8.6-14.1-19-27-31-38.4l-16.2-15.5c-8.5-8.1-9.7-20.8-3-30.4l22.2-31.6c2.8-3.9,5.3-8.1,7.6-12.3
	l18.9-35.4c0.1-0.1,0.2-0.3,0-0.6c-0.2-0.3-0.4-0.3-0.5-0.3l-41,0h0c-1,0-1.9,0.6-2.3,1.5l-4.3,9.9c-12.2,27.7-28.9,53-49.6,75
	c-1.4,1.5-3,2.6-4.8,3.4l-3.9,1.8c-5.1,2.3-11,1.9-15.7-1.1c-4.7-3-7.5-8.2-7.5-13.8v-76.7h-54.4l2,2.7c6.3,8.8,9.7,19.2,9.7,30.1
	v59.9c0,6.8-4.1,12.8-10.5,15.3c-6.4,2.5-13.4,0.8-18-4.2c-8.4-9.2-20.5-23.8-30.5-41.4c-12.2-21.4-20.8-46-24.8-58.8
	c-0.7-2.2-2.7-3.7-5-3.7H52.7l7.5,26.7c4.4,15.6,10.4,30.7,17.9,45c2.5,4.7,0.6,10.5-4,12.9c-4.7,2.5-10.5,0.6-12.9-4
	c-8.1-15.5-14.6-31.9-19.4-48.7l-7.7-27.5c-1.6-5.6-0.5-11.6,3.1-16.2c3.5-4.7,8.9-7.3,14.8-7.3h41.5c10.7,0,20,6.8,23.2,17
	c3.8,12,11.9,35.2,23.2,55.1c7.4,13,16.1,24.3,23.2,32.6v-52.8c0-6.8-2.1-13.4-6.1-18.9L153,329c-2.1-3-3.2-6.4-3.2-10.1
	c0-9.5,7.8-17.3,17.3-17.3h58c10.5,0,19,8.5,19,19.1v72.2c18.8-20.2,33.9-43.2,44.9-68.4l4.3-9.9c3.5-7.9,11.2-12.9,19.8-12.9
	c0,0,0,0,0,0l41,0c7,0,13.3,3.6,16.9,9.6c3.6,6,3.8,13.3,0.5,19.5l-18.9,35.4c-2.6,4.9-5.6,9.7-8.8,14.3L321.8,412
	c-1.2,1.7-1,4.1,0.6,5.5l16.2,15.5c13.2,12.5,24.6,26.7,34.1,42.2l4.9,7.9c3.9,6.4,4.1,14.4,0.4,20.9
	C374.3,510.6,367.4,514.6,359.9,514.6z"/>
<path class="st0" d="M87.9,435.9c-3,0-5.9-1.4-7.8-4l7.8-5.6l-7.8,5.5c0,0-0.1-0.1-0.1-0.1c-3.1-4.3-2.1-10.3,2.2-13.3
	c4.3-3.1,10.3-2.1,13.3,2.2l0.1,0.1c3.1,4.3,2.1,10.3-2.2,13.3C91.7,435.4,89.8,435.9,87.9,435.9z"/>
<path d="M313.5,165h-212c-69,0-125.1,56.1-125.1,125.1v212c0,69,56.1,125.1,125.1,125.1h212c69,0,125.1-56.1,125.1-125.1v-212
	C438.6,221.1,382.5,165,313.5,165L313.5,165z M411.5,502.2c0,54.1-44,98-98,98h-212c-54.1,0-98-44-98-98v-212c0-54.1,44-98,98-98
	h212c54.1,0,98,44,98,98V502.2z M411.5,502.2"/>
</svg>
