<?xml version="1.0" encoding="UTF-8" ?>
<!DOCTYPE svg PUBLIC "-//W3C//DTD SVG 1.1//EN" "http://www.w3.org/Graphics/SVG/1.1/DTD/svg11.dtd">
<svg width="1260pt" height="1260pt" viewBox="0 0 1260 1260" version="1.1" xmlns="http://www.w3.org/2000/svg">
<g id="#ffffffff">
<path fill="#ffffff" opacity="1.00" d=" M 606.12 122.14 C 684.66 118.35 764.01 133.20 835.90 165.05 C 934.17 208.31 1017.65 283.96 1070.85 377.18 C 1109.46 444.80 1132.26 521.39 1136.74 599.14 C 1141.36 676.32 1127.94 754.47 1097.79 825.67 C 1082.27 862.52 1062.44 897.55 1038.73 929.75 C 1018.64 957.15 995.50 982.23 970.43 1005.14 C 912.26 1057.98 841.41 1096.58 765.74 1117.62 C 686.69 1139.69 602.24 1141.85 522.08 1124.30 C 447.63 1108.10 376.92 1074.87 317.11 1027.64 C 269.60 990.26 228.68 944.46 197.27 892.79 C 157.10 826.97 132.30 751.88 125.30 675.09 C 117.60 592.60 130.71 508.33 162.95 432.01 C 187.42 373.51 223.18 319.84 267.47 274.48 C 313.98 226.73 370.11 188.43 431.39 162.24 C 486.63 138.60 546.13 125.07 606.12 122.14 M 513.55 332.17 C 504.72 368.44 493.93 404.21 484.99 440.45 C 522.31 450.31 559.54 460.49 596.83 470.44 C 610.51 474.09 624.21 477.95 637.12 483.85 C 653.43 491.05 668.74 501.01 680.78 514.26 C 694.08 528.83 702.43 547.63 705.22 567.10 C 708.17 587.38 706.21 608.12 701.71 628.03 C 695.18 657.14 684.48 686.04 665.55 709.47 C 653.31 724.96 636.50 736.87 617.67 742.92 C 600.26 748.58 581.48 748.38 563.56 745.62 C 534.75 739.51 506.66 730.56 478.11 723.44 C 456.38 717.61 434.78 711.31 412.86 706.24 C 404.16 742.55 393.40 778.32 384.31 814.53 C 444.34 830.18 504.09 846.88 564.11 862.56 C 584.15 867.35 604.49 871.01 625.02 872.87 C 655.96 875.68 687.62 874.18 717.55 865.41 C 745.45 857.38 771.20 842.24 792.05 822.07 C 823.77 791.17 843.98 750.51 857.57 708.83 C 869.41 672.03 877.43 633.70 878.24 594.95 C 878.93 562.23 873.74 528.96 859.87 499.13 C 846.86 470.82 825.98 446.47 800.93 428.08 C 771.11 406.07 736.27 391.87 700.70 382.13 C 638.27 365.67 576.10 348.21 513.55 332.17 Z" />
</g>
</svg>
